<?xml version="1.0" encoding="utf-8"?>
<svg version="1.1" id="Camada_1" x="0px" y="0px" viewBox="0 0 290 32" style="enable-background:new 0 0 290 32;" xmlns="http://www.w3.org/2000/svg">
  <style type="text/css">
	.st0{enable-background:new    ;}
	.st1{fill:#72727D;}
	.st2{fill:#A8A9B6;}
	.st3{fill:#FFFFFF;}
	.st4{fill:#505150;}
</style>
  <g>
    <g class="st0">
      <path class="st1" d="M45.7,24.7c-2.4,0-4.1-0.7-5.3-2s-1.8-3.3-1.8-5.9c0-2.5,0.6-4.4,1.8-5.8s3-2,5.2-2c1.1,0,2.1,0.2,2.9,0.5 c0.8,0.3,1.4,0.8,1.8,1.4l-1.7,1.6c-0.3-0.5-0.8-0.9-1.3-1.1c-0.5-0.3-1.1-0.4-1.7-0.4c-1.5,0-2.7,0.5-3.5,1.5s-1.2,2.4-1.2,4.3 c0,2,0.4,3.5,1.2,4.5s2.1,1.5,3.7,1.5c0.7,0,1.3-0.1,1.9-0.2s1-0.2,1.3-0.3l0.9,1.9c-0.3,0.1-0.9,0.2-1.6,0.4 C47.6,24.6,46.7,24.7,45.7,24.7z M44.7,18.9v-2H50v2H44.7z M47.8,24.1v-7.2H50v7.2C50,24.1,47.8,24.1,47.8,24.1z"/>
      <path class="st1" d="M53,24.5v-2h4.7v2H53z M53.7,15.1v-2h6.2v2H53.7z M58.6,11.3c-0.5,0-0.8-0.2-1.2-0.5 c-0.3-0.3-0.5-0.7-0.5-1.1c0-0.4,0.2-0.8,0.5-1.1s0.7-0.5,1.2-0.5s0.8,0.2,1.2,0.5c0.3,0.3,0.5,0.7,0.5,1.1c0,0.4-0.2,0.8-0.5,1.1 S59.1,11.3,58.6,11.3z M57.5,24.5V13.7h2.4v10.8H57.5z M59.7,24.5v-2h3.8v2H59.7z"/>
      <path class="st1" d="M65.4,15.1v-2h10.7v2H65.4z M68.3,19.1V9.6h2.4v9.5H68.3z M73.4,24.7c-1.8,0-3.1-0.4-3.9-1.1 s-1.2-1.9-1.2-3.4v-1.9h2.4v1.8c0,0.9,0.2,1.6,0.7,2s1.2,0.6,2.3,0.6c0.4,0,0.8,0,1.2-0.1c0.4,0,0.9-0.1,1.4-0.2l0.3,2 c-0.5,0.1-1,0.2-1.5,0.2S74,24.7,73.4,24.7z"/>
      <path class="st1" d="M79.5,24.5V9.2h2.3v15.3H79.5z M80,17.9v-2h9.4v2H80z M87.4,24.5V9.2h2.3v15.3H87.4z"/>
      <path class="st1" d="M96.8,24.7c-1.2,0-2.2-0.4-2.9-1.1s-1-1.7-1-3v-7.5h2.4v7.5c0,0.7,0.2,1.2,0.6,1.5c0.4,0.4,0.9,0.5,1.6,0.5 c0.9,0,1.5-0.3,1.9-0.8s0.7-1.4,0.7-2.7l0.6,3.1h-0.8c-0.2,0.8-0.5,1.4-1.1,1.8C98.3,24.5,97.6,24.7,96.8,24.7z M100.1,21.3v-8.2 h2.4v7.5L100.1,21.3z M100.3,24.6l-0.2-2.7v-2h2.4v2.6l1.6,0.2v1.8L100.3,24.6z"/>
      <path class="st1" d="M106.5,24.5V8.3h2.4v16L106.5,24.5z M109.6,24.7c-0.5,0-1.1,0-1.6-0.1s-1-0.1-1.6-0.2l0.9-2.1 c0.4,0.2,0.8,0.3,1.3,0.3s0.9,0,1.4,0c1.4,0,2.5-0.4,3.3-1.2c0.8-0.8,1.2-2,1.2-3.5c0-1-0.2-1.8-0.7-2.4s-1.1-0.8-2-0.8 c-2,0-3,1.1-3,3.3l-0.7-2.9h0.9c0.1-1.5,1.1-2.3,2.9-2.3c1.6,0,2.8,0.4,3.6,1.3c0.9,0.9,1.3,2.2,1.3,3.8c0,2.1-0.6,3.8-1.9,4.9 C113.7,24.1,111.9,24.7,109.6,24.7z"/>
    </g>
  </g>
  <g>
    <g class="st0">
      <path class="st2" d="M117.5,26.6v-2h11.1v2H117.5z" style="fill: rgb(0, 124, 236);"/>
      <path class="st2" d="M131.3,24.6V9.3h2.3v15.3H131.3z M133.5,18.8v-2h3.3c0.9,0,1.6-0.2,2.1-0.7s0.7-1.1,0.7-1.9 c0-0.9-0.2-1.6-0.7-2.1s-1.2-0.7-2.1-0.7h-3.2l-0.3-2h3.5c1.6,0,2.9,0.4,3.8,1.2c0.9,0.8,1.3,1.9,1.3,3.4s-0.4,2.7-1.3,3.6 c-0.9,0.8-2.2,1.3-3.8,1.3L133.5,18.8L133.5,18.8z M139.8,24.6l-3.5-7.2h2.4l3.8,7.2C142.5,24.6,139.8,24.6,139.8,24.6z" style="fill: rgb(0, 124, 236);"/>
      <path class="st2" d="M150.8,24.8c-2,0-3.6-0.5-4.7-1.5c-1.1-1-1.6-2.5-1.6-4.4s0.5-3.3,1.4-4.4c0.9-1,2.2-1.6,3.9-1.6 c1.6,0,2.8,0.5,3.7,1.4s1.3,2.3,1.3,4.1c0,0.5,0,1-0.1,1.5h-8.3v-1.7h6.2c0-1-0.3-1.8-0.8-2.4c-0.5-0.5-1.2-0.8-2.1-0.8 c-1,0-1.8,0.3-2.3,1c-0.6,0.7-0.8,1.6-0.8,2.8c0,1.3,0.4,2.3,1.1,3s1.8,1,3.2,1c0.5,0,1,0,1.4-0.1c0.5-0.1,1-0.1,1.4-0.2l0.3,2 c-0.7,0.1-1.3,0.2-1.9,0.2C151.7,24.8,151.2,24.8,150.8,24.8z" style="fill: rgb(0, 124, 236);"/>
      <path class="st2" d="M158.3,29.6V13.2h2.1l0.2,2.4v14H158.3z M164,24.8c-0.9,0-1.6-0.2-2.2-0.6c-0.6-0.4-0.9-1-0.9-1.7h-1l0.8-3.3 c0,1.2,0.2,2.1,0.7,2.7s1.2,0.9,2.1,0.9c0.9,0,1.7-0.3,2.2-1s0.7-1.6,0.7-2.9c0-1.4-0.2-2.4-0.7-3.1s-1.2-1-2.2-1 c-0.9,0-1.6,0.3-2.1,0.9c-0.5,0.6-0.7,1.5-0.7,2.7l-0.8-3.3h0.9c0.1-0.7,0.4-1.3,1-1.7s1.3-0.6,2.2-0.6c1.5,0,2.7,0.5,3.5,1.5 s1.2,2.5,1.2,4.5c0,1.9-0.4,3.4-1.2,4.3C166.7,24.3,165.6,24.8,164,24.8z" style="fill: rgb(0, 124, 236);"/>
      <path class="st2" d="M176.5,24.8c-1.6,0-2.9-0.5-3.8-1.6s-1.4-2.5-1.4-4.4s0.5-3.3,1.4-4.4c0.9-1,2.2-1.5,3.8-1.5s2.9,0.5,3.8,1.5 c0.9,1,1.4,2.5,1.4,4.4s-0.5,3.3-1.4,4.4C179.4,24.3,178.1,24.8,176.5,24.8z M176.5,22.8c0.9,0,1.5-0.3,2-1s0.7-1.6,0.7-2.9 c0-1.2-0.2-2.2-0.7-2.9c-0.5-0.7-1.1-1-2-1s-1.5,0.3-2,1c-0.5,0.7-0.7,1.6-0.7,2.9c0,1.2,0.2,2.2,0.7,2.9 C174.9,22.4,175.6,22.8,176.5,22.8z" style="fill: rgb(0, 124, 236);"/>
      <path class="st2" d="M184.9,24.6V9.3h2.3v15.3H184.9z M184.9,11.4v-2h10.5v2H184.9z M184.9,18v-2h8.5v2H184.9z M184.9,24.6v-2 h10.5v2H184.9z" style="fill: rgb(0, 124, 236);"/>
      <path class="st2" d="M206,24.6l-3.6-4.9l-4.7-6.5h2.7l3.6,5.1l4.7,6.3C208.7,24.6,206,24.6,206,24.6z M197.6,24.6l4.7-6.3l3.6-5.1 h2.7l-4.9,6.5l-3.4,4.9C200.3,24.6,197.6,24.6,197.6,24.6z" style="fill: rgb(0, 124, 236);"/>
      <path class="st2" d="M211.7,29.6V13.2h2.1l0.2,2.4v14H211.7z M217.4,24.8c-0.9,0-1.6-0.2-2.2-0.6c-0.6-0.4-0.9-1-0.9-1.7h-1 l0.8-3.3c0,1.2,0.2,2.1,0.7,2.7s1.2,0.9,2.1,0.9c0.9,0,1.7-0.3,2.2-1s0.7-1.6,0.7-2.9c0-1.4-0.2-2.4-0.7-3.1c-0.5-0.7-1.2-1-2.2-1 c-0.9,0-1.6,0.3-2.1,0.9c-0.5,0.6-0.7,1.5-0.7,2.7l-0.8-3.3h0.9c0.1-0.7,0.4-1.3,1-1.7s1.3-0.6,2.2-0.6c1.5,0,2.7,0.5,3.5,1.5 s1.2,2.5,1.2,4.5c0,1.9-0.4,3.4-1.2,4.3C220.1,24.3,218.9,24.8,217.4,24.8z" style="fill: rgb(0, 124, 236);"/>
      <path class="st2" d="M224.2,10.5v-2h3.7v2H224.2z M231.6,24.8c-1.4,0-2.4-0.4-3-1.1s-0.9-1.9-0.9-3.4V8.5h2.4v11.7 c0,0.6,0.1,1.1,0.2,1.5c0.1,0.4,0.4,0.7,0.7,0.8c0.3,0.2,0.9,0.3,1.5,0.3s1.4-0.1,2.4-0.4l0.3,2c-0.6,0.2-1.2,0.3-1.7,0.3 S232.2,24.8,231.6,24.8z" style="fill: rgb(0, 124, 236);"/>
      <path class="st2" d="M243.2,24.8c-1.6,0-2.9-0.5-3.8-1.6s-1.4-2.5-1.4-4.4s0.5-3.3,1.4-4.4c0.9-1,2.2-1.5,3.8-1.5s2.9,0.5,3.8,1.5 c0.9,1,1.4,2.5,1.4,4.4s-0.5,3.3-1.4,4.4S244.8,24.8,243.2,24.8z M243.2,22.8c0.9,0,1.5-0.3,2-1s0.7-1.6,0.7-2.9 c0-1.2-0.2-2.2-0.7-2.9c-0.5-0.7-1.1-1-2-1s-1.5,0.3-2,1c-0.5,0.7-0.7,1.6-0.7,2.9c0,1.2,0.2,2.2,0.7,2.9 C241.6,22.4,242.3,22.8,243.2,22.8z" style="fill: rgb(0, 124, 236);"/>
      <path class="st2" d="M250.7,24.6v-2h7.9v2H250.7z M251.2,15.2v-2h3.9l0.2,2H251.2z M253.4,24.6V13.2h1.9l0.4,3.3v8.1H253.4z M255.7,19.7l-0.7-3.6h0.9c0.1-2.1,1.2-3.1,3.2-3.1c1.2,0,2.1,0.3,2.6,1s0.8,1.8,0.8,3.3h-2.3c0-0.8-0.1-1.4-0.4-1.8 s-0.7-0.5-1.2-0.5c-1,0-1.7,0.4-2.2,1.2C256,17,255.7,18.2,255.7,19.7z" style="fill: rgb(0, 124, 236);"/>
      <path class="st2" d="M270.9,24.8c-2,0-3.6-0.5-4.7-1.5s-1.6-2.5-1.6-4.4s0.5-3.3,1.4-4.4c0.9-1,2.2-1.6,3.9-1.6 c1.6,0,2.8,0.5,3.7,1.4c0.9,0.9,1.3,2.3,1.3,4.1c0,0.5,0,1-0.1,1.5h-8.3v-1.7h6.2c0-1-0.3-1.8-0.8-2.4c-0.5-0.5-1.2-0.8-2.1-0.8 c-1,0-1.8,0.3-2.3,1c-0.6,0.7-0.8,1.6-0.8,2.8c0,1.3,0.4,2.3,1.1,3s1.8,1,3.2,1c0.5,0,1,0,1.4-0.1c0.5-0.1,1-0.1,1.4-0.2l0.3,2 c-0.7,0.1-1.3,0.2-1.9,0.2C271.8,24.8,271.3,24.8,270.9,24.8z" style="fill: rgb(0, 124, 236);"/>
      <path class="st2" d="M277.4,24.6v-2h7.9v2H277.4z M277.9,15.2v-2h3.9l0.2,2H277.9z M280.1,24.6V13.2h1.9l0.4,3.3v8.1H280.1z M282.4,19.7l-0.7-3.6h0.9c0.1-2.1,1.2-3.1,3.2-3.1c1.2,0,2.1,0.3,2.6,1s0.8,1.8,0.8,3.3H287c0-0.8-0.1-1.4-0.4-1.8 s-0.7-0.5-1.2-0.5c-1,0-1.7,0.4-2.2,1.2C282.7,17,282.4,18.2,282.4,19.7z" style="fill: rgb(0, 124, 236);"/>
    </g>
  </g>
  <g id="Logo" transform="matrix(0.262295, 0, 0, 0.262295, -0.069731, -0.0433)">
    <ellipse class="st0" cx="62.5" cy="61.2" rx="61" ry="61" style="fill: rgb(0, 124, 236);"/>
    <g transform="matrix(0.008943, 0, 0, -0.00886, 2.876573, 111.248718)" fill="#000000" stroke="none" style="">
      <path d="M5185 10539 c-254 -16 -562 -76 -815 -159 -484 -158 -954 -432 -1305 -761 -33 -31 -79 -73 -103 -94 -59 -52 -273 -299 -351 -404 -124 -168 -235 -348 -327 -531 -193 -385 -289 -700 -354 -1168 -26 -187 -29 -674 -4 -841 25 -171 54 -328 85 -453 197 -806 694 -1535 1377 -2020 586 -416 1256 -637 1982 -655 499 -12 997 83 1467 283 87 36 167 64 186 64 50 0 78 -25 268 -240 46 -52 109 -122 139 -155 74 -78 125 -136 240 -270 118 -137 137 -158 285 -319 129 -141 415 -459 480 -535 22 -25 141 -158 264 -296 124 -137 259 -288 301 -335 41 -47 77 -87 80 -90 3 -3 54 -59 112 -125 161 -183 231 -243 357 -305 177 -88 441 -104 644 -39 145 46 315 155 416 265 100 109 190 268 227 404 14 50 18 102 18 230 0 182 -8 224 -69 355 -52 112 -60 122 -583 705 -102 113 -233 259 -292 325 -198 221 -402 449 -484 540 -44 49 -99 110 -121 135 -21 25 -93 101 -160 170 -155 162 -263 282 -356 400 -42 52 -105 127 -141 165 -113 121 -198 225 -204 250 -8 33 4 65 65 164 124 204 278 557 346 791 114 396 168 832 146 1182 -42 667 -224 1233 -569 1768 -198 307 -474 610 -780 853 -161 129 -403 283 -587 375 -597 298 -1189 414 -1880 371z m438 -530 c265 -16 492 -58 744 -139 643 -205 1198 -620 1575 -1175 274 -403 436 -824 503 -1310 9 -60 19 -202 22 -315 14 -507 -97 -1000 -327 -1446 -123 -238 -278 -464 -319 -464 -25 0 -54 35 -91 110 -119 238 -339 584 -488 769 -292 361 -526 547 -814 645 -154 53 -215 51 -350 -10 -219 -98 -339 -139 -513 -175 -279 -57 -609 2 -1005 182 -118 53 -187 57 -289 15 -350 -142 -730 -551 -1104 -1189 -67 -115 -130 -213 -140 -219 -29 -15 -63 15 -128 115 -114 175 -270 515 -333 722 -92 307 -126 543 -126 884 0 384 40 623 163 986 197 579 577 1090 1080 1453 158 114 373 239 510 298 384 165 727 247 1122 267 33 2 77 4 98 5 22 1 116 -3 210 -9z" style="fill: rgb(255, 255, 255);"/>
      <path d="M5097 9164 c-219 -36 -458 -153 -639 -311 -204 -179 -366 -468 -413 -742 -20 -110 -19 -344 0 -457 79 -459 427 -855 870 -993 282 -87 595 -79 855 22 377 146 668 458 784 838 101 331 60 715 -106 1005 -100 175 -218 307 -374 416 -241 170 -467 239 -765 237 -74 -1 -169 -7 -212 -15z" style="fill: rgb(255, 255, 255);"/>
    </g>
  </g>
</svg>