<?xml version="1.0" encoding="utf-8"?>
<!-- Generator: Adobe Illustrator 25.2.1, SVG Export Plug-In . SVG Version: 6.00 Build 0)  -->
<svg version="1.1" id="Camada_1" xmlns="http://www.w3.org/2000/svg" xmlns:xlink="http://www.w3.org/1999/xlink" x="0px" y="0px"
	 viewBox="0 0 125 122.4" style="enable-background:new 0 0 125 122.4;" xml:space="preserve">
<style type="text/css">
	.st0{fill:#505150;}
	.st1{fill:#FFFFFF;}
</style>
<g id="Logo">
	<ellipse class="st0" cx="62.5" cy="61.2" rx="61" ry="61"/>
	<path class="st1" d="M64.2,29.1l0.7,0.1c0.9,0.1,1.8,0.4,2.7,0.8c1.1,0.5,2.2,1.2,3.1,2c0.3,0.3,7.5,6,16,12.6
		c17.1,13.3,15.8,12.3,17,14c3.4,5,3.9,11.3,1.2,16.7c-0.8,1.6-1.8,3-3.1,4.3c-2.7,2.7-6.3,4.5-10.1,5c-1.5,0.2-2.9,0.2-4.4,0.1
		c-2-0.2-3.9-0.7-5.7-1.5c-2.7-1.2-5-3.1-6.7-5.4c-0.4-0.5-0.9-1.2-4.5-7c-2-3.2-2.4-3.8-2.6-3.8C67.5,67,57,68.2,57,68.2
		c0,0.2,0.1,0.4,0.2,0.7c1.4,4.2,1,8.7-1,12.6c-1.7,3.3-4.5,6-8,7.7c-1,0.5-2.1,0.9-3.2,1.2c-3.4,0.9-7,0.8-10.4-0.3
		c-1.3-0.5-2.6-1.1-3.8-1.8c-4.1-2.6-6.9-6.7-7.7-11.3c-0.2-1.3-0.2-1.3-0.4-10c0-1.6-0.1-4.1-0.1-5.5c-0.1-5.6-0.2-8.3-0.3-11
		c0-1.5-0.1-3.9-0.1-5.3c-0.1-2.7-0.1-2.7,0.3-4.1c0.4-1.9,1.4-3.5,2.9-4.9c0.8-0.8,1.7-1.4,2.7-1.9c2.6-1.3,5.6-1.5,8.4-0.7
		c1.1,0.4,2.1,0.9,3.1,1.5c0.9,0.7,1.7,1.5,2.4,2.3c0.6,0.9,1,1.6,2.9,5.5c1,2.1,1.8,3.8,1.8,3.8c0.1,0,0.8-0.2,1.9-0.4l3.4-0.9
		l1.8-0.4l0.2-0.1l-0.3-0.6c-0.4-0.8-0.7-1.7-0.9-2.6c-0.1-0.7-0.2-1.4-0.2-2c0-0.7,0-1.4,0.2-2.1c0.4-2.1,1.5-4,3.1-5.5
		c1.7-1.6,3.9-2.6,6.2-2.8C62.6,29.1,63.4,29.1,64.2,29.1z M66.6,32l9.1,9.4c4.8,5,8.9,9.2,9.1,9.4l0.3,0.3l3.8,0.3l3.9,0.3
		c0.1,0-1.1-1-2.7-2.2l-12.2-9.6l-9.4-7.4l-1.1-0.4c-0.6-0.2-1.1-0.4-1.2-0.4C66.4,31.7,66.5,31.8,66.6,32z M40,41.3
		c0.7,2.8,1.6,6.1,1.8,7.2c0.3,1.1,0.9,3.7,1.5,5.7c0.5,2,0.9,3.7,1,3.7c0,0.1,6.2,2.9,6.3,2.8c0.1,0-0.3-0.9-0.8-1.8L46,50.2
		l-2.2-5c-0.5-1.1-1.5-3.3-2.2-5l-1.3-3l-0.8-0.6c-0.2-0.2-0.5-0.4-0.8-0.6C38.7,36.1,39.3,38.4,40,41.3z M87.7,54.4
		c-3.2,0.3-6.1,1.6-8.4,3.8c-2.7,2.5-4.3,6-4.3,9.7c0,2.1,0.5,4.1,1.4,6c3.4,6.7,11.8,9.4,18.8,6.1s9.8-11.4,6.4-18.1
		c-1.1-2.2-2.8-4-4.9-5.3c-1.4-0.9-3-1.5-4.7-1.9C90.6,54.3,89.2,54.3,87.7,54.4z M38.6,60.5c-6.4,0.8-11.4,5.7-12.1,11.9
		c-0.1,1.3-0.1,2.6,0.1,3.8c1.4,7.4,8.6,12.3,16.3,11c7.6-1.3,12.7-8.3,11.4-15.7c-1.1-5.8-5.9-10.3-11.9-11
		C41,60.4,39.8,60.4,38.6,60.5z"/>
	<path class="st1" d="M82.6,62.6c0.1,0.3,0.2,1.1,0.3,1.7c1.5,6.5,5,11.5,9.5,13.6c1.4,0.7,2.9,1,4.4,1.1c1.6,0.1,3.1-0.2,4.6-0.8
		c0.2-0.1,0.4-0.2,0.7-0.2c-0.5,0.6-1.1,1.2-1.7,1.7c-3.4,2.7-7.9,3.5-12,2.2c-1.2-0.4-2.3-1-3.3-1.7c-4.6-3.2-6.5-9-4.7-14.3
		c0.5-1.3,1.1-2.6,2-3.7l0.2-0.2V62.6z"/>
	<path class="st1" d="M27.6,69.9c0.7,4.5,2.7,8.8,5.8,12.2c1.5,1.6,3.4,2.8,5.4,3.5c1.1,0.4,2.3,0.6,3.5,0.5c1.5,0,3-0.3,4.4-0.8
		l0.5-0.2L47,85.4c-0.3,0.3-0.6,0.6-0.9,0.9c-2,1.8-4.5,3-7.2,3.3c-1.3,0.1-2.7,0.1-4-0.2c-5.3-1.1-9.4-5.4-10.1-10.8
		c-0.1-0.6-0.1-1.1-0.1-1.7c0-2,0.4-3.9,1.3-5.6c0.4-0.8,0.9-1.5,1.4-2.2C27.4,69.1,27.5,69.3,27.6,69.9z"/>
</g>
</svg>
